<svg width="20" height="12" viewBox="0 0 20 12" fill="none" xmlns="http://www.w3.org/2000/svg">
<path d="M11.9836 11.7951H7.13934V11.2131C7.56557 11.1858 7.91803 11.1311 8.19672 11.0492C8.48087 10.9672 8.62295 10.8661 8.62295 10.7459C8.62295 10.6967 8.61749 10.6366 8.60656 10.5656C8.59563 10.4945 8.57924 10.4317 8.55738 10.377L7.59016 7.77049H3.51639C3.36339 8.15301 3.23771 8.48634 3.13934 8.77049C3.04645 9.05464 2.96175 9.31694 2.88525 9.55738C2.81421 9.79235 2.76503 9.98361 2.73771 10.1311C2.71038 10.2787 2.69672 10.3989 2.69672 10.4918C2.69672 10.7104 2.86885 10.8798 3.21311 11C3.55738 11.1202 3.94536 11.1913 4.37705 11.2131V11.7951H0V11.2131C0.142077 11.2022 0.319672 11.1721 0.532787 11.123C0.745902 11.0683 0.920765 10.9973 1.05738 10.9098C1.27596 10.7623 1.44536 10.6093 1.56557 10.4508C1.68579 10.2869 1.80328 10.0628 1.91803 9.77869C2.50273 8.31967 3.14754 6.68033 3.85246 4.86066C4.55738 3.04098 5.18579 1.42076 5.73771 0H6.39344L10.2705 10.0328C10.3525 10.2459 10.4454 10.418 10.5492 10.5492C10.653 10.6803 10.7978 10.8087 10.9836 10.9344C11.1093 11.0109 11.2732 11.0765 11.4754 11.1311C11.6776 11.1803 11.847 11.2076 11.9836 11.2131V11.7951ZM7.29508 7.04098L5.53279 2.53279L3.80328 7.04098H7.29508Z" fill="currentColor"/>
<path d="M19.8443 11.6475C19.5874 11.7404 19.3607 11.8142 19.1639 11.8689C18.9727 11.929 18.7541 11.959 18.5082 11.959C18.082 11.959 17.7404 11.8607 17.4836 11.6639C17.2322 11.4617 17.071 11.1694 17 10.7869H16.9508C16.5956 11.1803 16.2131 11.4809 15.8033 11.6885C15.3989 11.8962 14.9098 12 14.3361 12C13.7295 12 13.2295 11.8142 12.8361 11.4426C12.4481 11.071 12.2541 10.5847 12.2541 9.98361C12.2541 9.67213 12.2978 9.39344 12.3852 9.14754C12.4727 8.90164 12.6038 8.68033 12.7787 8.48361C12.9153 8.31967 13.0956 8.17486 13.3197 8.04918C13.5437 7.91803 13.7541 7.81421 13.9508 7.7377C14.1967 7.64481 14.694 7.47268 15.4426 7.22131C16.1967 6.96994 16.7049 6.77322 16.9672 6.63115V5.81967C16.9672 5.74863 16.9508 5.61202 16.918 5.40984C16.8907 5.20765 16.8279 5.01639 16.7295 4.83607C16.6202 4.63388 16.4645 4.45902 16.2623 4.31148C16.0656 4.15847 15.7842 4.08197 15.418 4.08197C15.1667 4.08197 14.9317 4.12568 14.7131 4.21311C14.5 4.29508 14.3497 4.38251 14.2623 4.47541C14.2623 4.5847 14.2869 4.7459 14.3361 4.95902C14.3907 5.17213 14.418 5.36885 14.418 5.54918C14.418 5.74044 14.3306 5.9153 14.1557 6.07377C13.9863 6.23224 13.7486 6.31148 13.4426 6.31148C13.1694 6.31148 12.9672 6.21585 12.8361 6.02459C12.7104 5.82787 12.6475 5.60929 12.6475 5.36885C12.6475 5.11749 12.735 4.87705 12.9098 4.64754C13.0902 4.41803 13.3224 4.21311 13.6066 4.03279C13.8525 3.87978 14.1503 3.75137 14.5 3.64754C14.8497 3.53825 15.1913 3.48361 15.5246 3.48361C15.9836 3.48361 16.3825 3.51639 16.7213 3.58197C17.0656 3.64208 17.3771 3.77596 17.6557 3.98361C17.9344 4.18579 18.1448 4.46175 18.2869 4.81148C18.4344 5.15574 18.5082 5.60109 18.5082 6.14754C18.5082 6.92896 18.5 7.62295 18.4836 8.22951C18.4672 8.8306 18.459 9.48907 18.459 10.2049C18.459 10.418 18.4945 10.5874 18.5656 10.7131C18.6421 10.8388 18.7568 10.9454 18.9098 11.0328C18.9918 11.082 19.1202 11.1093 19.2951 11.1148C19.4754 11.1202 19.6585 11.123 19.8443 11.123V11.6475ZM16.9836 7.31967C16.5191 7.45628 16.112 7.59016 15.7623 7.72131C15.4126 7.85246 15.0874 8.01639 14.7869 8.21311C14.5137 8.39891 14.2978 8.62022 14.1393 8.87705C13.9809 9.12841 13.9016 9.42896 13.9016 9.77869C13.9016 10.2322 14.0191 10.5656 14.2541 10.7787C14.4945 10.9918 14.7978 11.0984 15.1639 11.0984C15.5519 11.0984 15.8934 11.0055 16.1885 10.8197C16.4836 10.6284 16.7322 10.4044 16.9344 10.1475L16.9836 7.31967Z" fill="currentColor"/>
</svg>
