<svg width="18" height="18" viewBox="0 0 18 18" fill="none" xmlns="http://www.w3.org/2000/svg">
<rect x="0.5" y="0.5" width="17" height="17" rx="0.5" stroke="#A1A7BD" stroke-dasharray="3 4"/>
<path d="M16.3076 6.73733H14.36L13.4037 5.30295C13.3528 5.22453 13.283 5.16021 13.2006 5.11596C13.1183 5.07172 13.0261 5.04897 12.9326 5.04983H8.43262C8.33914 5.04897 8.24695 5.07172 8.1646 5.11596C8.08225 5.16021 8.0124 5.22453 7.96152 5.30295L7.00527 6.73733H5.05762C4.61063 6.73918 4.18249 6.91756 3.86642 7.23363C3.55035 7.5497 3.37197 7.97784 3.37012 8.42483V16.2998C3.37197 16.7468 3.55035 17.175 3.86642 17.491C4.18249 17.8071 4.61063 17.9855 5.05762 17.9873H16.3076C16.7546 17.9855 17.1827 17.8071 17.4988 17.491C17.8149 17.175 17.9933 16.7468 17.9951 16.2998V8.42483C17.9933 7.97784 17.8149 7.5497 17.4988 7.23363C17.1827 6.91756 16.7546 6.73918 16.3076 6.73733ZM16.8701 16.2998C16.8701 16.449 16.8109 16.5921 16.7054 16.6976C16.5999 16.8031 16.4568 16.8623 16.3076 16.8623H5.05762C4.90843 16.8623 4.76536 16.8031 4.65987 16.6976C4.55438 16.5921 4.49512 16.449 4.49512 16.2998V8.42483C4.49512 8.27564 4.55438 8.13257 4.65987 8.02708C4.76536 7.92159 4.90843 7.86233 5.05762 7.86233H7.30762C7.4011 7.86319 7.49328 7.84044 7.57563 7.79619C7.65798 7.75194 7.72783 7.68763 7.77871 7.6092L8.73496 6.17483H12.6303L13.5865 7.6092C13.6374 7.68763 13.7073 7.75194 13.7896 7.79619C13.872 7.84044 13.9641 7.86319 14.0576 7.86233H16.3076C16.4568 7.86233 16.5999 7.92159 16.7054 8.02708C16.8109 8.13257 16.8701 8.27564 16.8701 8.42483V16.2998ZM10.6826 8.98733C10.0707 8.98733 9.47259 9.16877 8.96382 9.50872C8.45506 9.84866 8.05852 10.3318 7.82437 10.8972C7.59021 11.4625 7.52894 12.0845 7.64831 12.6846C7.76769 13.2848 8.06234 13.836 8.49501 14.2687C8.92767 14.7014 9.47893 14.996 10.0791 15.1154C10.6792 15.2348 11.3012 15.1735 11.8665 14.9393C12.4319 14.7052 12.915 14.3086 13.255 13.7999C13.5949 13.2911 13.7764 12.693 13.7764 12.0811C13.7764 11.2606 13.4504 10.4737 12.8702 9.89347C12.29 9.31328 11.5031 8.98733 10.6826 8.98733ZM10.6826 14.0498C10.2932 14.0498 9.9126 13.9344 9.58884 13.718C9.26508 13.5017 9.01274 13.1942 8.86373 12.8345C8.71472 12.4747 8.67573 12.0789 8.7517 11.697C8.82766 11.3151 9.01517 10.9643 9.2905 10.689C9.56584 10.4136 9.91663 10.2261 10.2985 10.1502C10.6804 10.0742 11.0763 10.1132 11.436 10.2622C11.7958 10.4112 12.1032 10.6635 12.3196 10.9873C12.5359 11.3111 12.6514 11.6917 12.6514 12.0811C12.6495 12.6027 12.4415 13.1023 12.0727 13.4711C11.7039 13.84 11.2042 14.048 10.6826 14.0498Z" fill="#A1A7BD"/>
</svg>
