<svg width="11" height="12" viewBox="0 0 11 12" fill="none" xmlns="http://www.w3.org/2000/svg">
<path d="M11 3.25581H10.3859C10.3325 3.05285 10.2346 2.81325 10.0922 2.537C9.95577 2.25511 9.80151 1.99013 9.62945 1.74207C9.45146 1.48273 9.25566 1.25722 9.04207 1.06554C8.83441 0.868217 8.63269 0.755462 8.43689 0.727273C8.25297 0.704722 8.02157 0.687808 7.74272 0.676533C7.46386 0.665257 7.20577 0.659619 6.96845 0.659619H6.45227V10.2579C6.45227 10.444 6.4938 10.6159 6.57686 10.7738C6.65992 10.926 6.80529 11.0444 7.01294 11.129C7.11974 11.1684 7.34223 11.222 7.68042 11.2896C8.02454 11.3573 8.29153 11.3939 8.48139 11.3996V12H2.51861V11.3996C2.68474 11.3883 2.93689 11.3658 3.27508 11.3319C3.6192 11.2981 3.85653 11.2558 3.98705 11.2051C4.18285 11.1318 4.32524 11.0275 4.41424 10.8922C4.50917 10.7512 4.55663 10.5652 4.55663 10.334V0.659619H4.04045C3.85653 0.659619 3.6281 0.665257 3.35518 0.676533C3.08225 0.682171 2.8212 0.699084 2.57201 0.727273C2.37621 0.749824 2.17152 0.862579 1.95793 1.06554C1.75027 1.26286 1.55744 1.48837 1.37945 1.74207C1.20146 1.99577 1.04423 2.26638 0.907767 2.55391C0.771305 2.8358 0.676375 3.06977 0.622977 3.25581H0V0H11V3.25581Z" fill="currentColor"/>
</svg>
